<?xml version="1.0" encoding="utf-8"?>
<!-- Generator: Adobe Illustrator 27.0.0, SVG Export Plug-In . SVG Version: 6.00 Build 0)  -->
<svg version="1.1" id="Layer_1" xmlns="http://www.w3.org/2000/svg" xmlns:xlink="http://www.w3.org/1999/xlink" x="0px" y="0px"
	 viewBox="0 0 167.4 126.1" style="enable-background:new 0 0 167.4 126.1;" xml:space="preserve">
<style type="text/css">
	.st0{fill:#F89A0C;}
	.st1{fill:#090909;}
</style>
<image style="overflow:visible;enable-background:new    ;" width="800" height="600" xlink:href="116F72CC.jpeg"  transform="matrix(1 0 0 1 -8108.3101 -8128.9302)">
</image>
<path class="st0" d="M110.8,52.5c-4.5,2.6-8.9,5.1-14.1,8.1c7.4,4.7,14.4,9.2,21.4,13.7c-1.1,1.8-2.5,3-4.3,4.5
	c-7.3-3.8-13.9-8.8-21.5-13.1C90.7,74.1,89.1,82,87.5,90c-2.1,0-4,0-6.3,0c0.6-7.7,3.1-14.9,3.9-23c-9.3,5.3-18,10.2-26.6,15.1
	c-2.3-1.1-3.8-2.5-5.3-4.2C63.5,72,73.5,66.2,84,60.2c-6.6-4.2-13-8.3-19.7-12.6c-4.5,9.2-9,18.4-13.5,27.7
	c-1.8-1.6-3.1-3.3-4.4-5.4c3.4-7.2,6.9-14.5,10.8-22.5c-6.4,0.9-11.8,3.3-17.6,4.6c-1-2-0.4-4.1-0.5-6.4c4.8-1.4,9.5-2.9,14.8-4.5
	c-4.9-3.2-9.2-5.9-13.4-8.6c0.8-2.1,0.9-4.1,2.5-5.9c6.1,3.8,12.2,7.6,18.6,11.6c2.9-4.9,5-10,7.5-15.3c-5.2-3.8-10.4-7.4-15.7-11.3
	c1.8-1.5,3.3-2.7,4.9-3.9c4.9,2.5,8.7,6.5,13.9,9c2.9-5.9,5.6-11.4,8.3-16.8c2.4,0,4.4,0,7,0c-3.4,7.2-6.7,14-10.1,21
	c4.9,3.1,9.3,7,15.1,10c2.1-10,4-19.3,5.9-28.7c2.1,0.9,3.9,1.6,5.9,2.4c-1.5,7.5-2.9,14.9-4.5,23.1c7.9-2.3,15.2-4.4,22.5-6.5
	c1,2,1.9,3.6,3,5.7c-9,2.7-17.8,5.3-27.2,8.1c4,3.8,8.7,6.2,12.9,9.6c5.5-3.1,11-6.3,16.7-9.5c1,2.4,0.9,4.5,0.9,6.7
	c-3.6,2.3-7.3,4.6-11.3,7.1c3.6,2.6,6.8,4.8,10,7.1c0.8,2.4-1.1,4.1-1.4,6.7C120.8,59.4,116,56.1,110.8,52.5z M87.7,55.1
	c0.9-6.1,2.6-11.4,3-17.6c-7.3,1.5-13.9,3.7-21.3,5.9C75.8,47.5,81.6,51.2,87.7,55.1z M83,32.8c-3.2-2.3-5.8-4.1-8.6-6
	c-1.8,3.4-3.4,6.4-4.8,9.9C74.1,35.4,78.2,34.2,83,32.8z M104.8,48.3c-2.7-2.1-5.1-3.9-8.2-5.6c-0.8,3.9-1.4,7.4-2.1,11.1
	C98.2,52.5,101.1,50.2,104.8,48.3z"/>
<path class="st1" d="M119,107c-1.4-3.1-2.9-6.2-4.4-9.5c1.3-1.1,2.8-1.6,4.4-2.2c2.9,6.2,5.8,12.3,8.8,18.5
	c-1.5,0.7-2.7,1.3-4.2,2.1c-4.1-2.2-8.3-4.5-13.2-7.2c1.9,4,3.4,7.4,5.1,10.9c-1.4,0.7-2.8,1.4-4.4,2.2c-3-6.2-5.9-12.3-8.9-18.6
	c1.4-0.7,2.8-1.4,4.2-2.2c4,2.1,8,4.3,11.9,6.4c0.3,0.2,0.5,0.4,0.9,0.1C119.2,107.4,119.1,107.2,119,107z"/>
<path class="st1" d="M57.5,100.5c3.9,0.9,7.6,1.6,11.1,3.1c4.7,2.1,6.8,7.6,5.1,12.6c-1.7,5-6.5,7.9-11.8,6.8
	c-3.2-0.7-6.4-1.8-9.8-2.7C53.8,113.7,55.6,107.2,57.5,100.5z M61.1,106.3c-1,3.6-2,7.1-3,10.7c3.2,0.9,6.2,2.6,9.1-0.1
	c1.8-1.6,2.2-3.8,1.6-6C67.7,107.3,64.3,107,61.1,106.3z"/>
<path class="st1" d="M0,45.3c7.1-0.9,13.7-1.8,20.6-2.7c0.4,3.5,0.9,6.7,1.1,9.9c0.1,2.3-0.8,4.3-3,5.3c-2.1,0.9-4,0.7-5.7-1
	c-2.2,3.3-4.2,4.4-6.9,3.8c-2.9-0.7-4.4-2.6-4.9-6.3C0.8,51.4,0.4,48.5,0,45.3z M9.5,49.2c-1.7,0.2-3.1,0.1-4.4,0.7
	c0.1,4.2,0.9,6,2.8,5.5C11.4,54.4,9.3,51.6,9.5,49.2z M15.6,53.6c3-1.3,1.5-3.4,1.4-5.3c-1.4,0.2-2.6-0.2-3.7,0.5
	C13.4,50.7,12.9,52.7,15.6,53.6z"/>
<path class="st1" d="M100.8,115.5c0,6.1-4.7,10.7-11,10.7c-6.1,0-10.6-4.8-10.5-11.1c0.1-5.8,4.9-10.5,11-10.4
	C96.1,104.6,100.9,109.5,100.8,115.5z M90.1,121.1c3.1,0,5.6-2.4,5.6-5.4c0.1-3.5-2.3-6.2-5.5-6.2c-3.3,0-5.8,2.4-5.7,5.9
	C84.5,118.7,86.8,121.1,90.1,121.1z"/>
<path class="st1" d="M165.6,60.3c-6.9-0.9-13.6-1.7-20.5-2.6c0.6-5,1.1-9.7,1.7-14.5c1.6-0.7,3,0.2,4.7,0.2
	c-0.4,3.3-0.8,6.5-1.2,9.8c1,0.6,2.1,0.6,3.3,0.5c0.3-2.5,0.7-5,1-7.5c1.5,0,2.9,0,4.3,0.5c-0.3,2.5-0.6,5-0.9,7.6
	c1.2,0.1,2.3,0.3,3.6,0.4c0.4-3.4,0.8-6.6,1.3-10.1c1.5,0.2,2.9,0.4,4.6,0.7C166.8,50.3,166.2,55.2,165.6,60.3z"/>
<path class="st1" d="M12.2,86.7c-0.8-1.8-1.5-3.3-2.2-4.8c0.8-0.8,1.5-1.7,2.3-2.6c-1.1-2.4-2.2-4.9-3.3-7.4
	c-1.2,0.1-2.3,0.2-3.4,0.2c-0.7-1.6-1.3-3-2.2-4.9c7.5-0.4,14.8-0.7,22.1-1.1c0.7,1.5,1.3,2.9,2,4.4C22.5,75.9,17.5,81.1,12.2,86.7z
	 M15.7,76c1.8-1.7,3.3-3.2,5.4-5.1c-2.8,0.6-5.1,0.1-7.3,0.9C14.5,73.2,15,74.5,15.7,76z"/>
<path class="st1" d="M133.2,82.1c1.1,1.1,2,2.1,3,3.2c-0.9,1.8-2.9,2.7-4.2,4.6c3.5,3.8,7.1,7.6,10.9,11.6c-1.2,1.1-2.3,2.2-3.1,2.9
	c-4-3.6-7.9-7-11.9-10.6c-1.3,0.7-2.4,2.4-4.1,3.7c-1-1-2-2-3.2-3.2C124.7,90.2,128.8,86.2,133.2,82.1z"/>
<path class="st1" d="M23.3,93.1c2.3,2.6,4.3,4.8,6.5,7.3c-1.2,1-2.3,2-3.5,3.1c-3.3-3.7-6.5-7.3-9.8-11c5.2-4.6,10.2-9.1,15.4-13.7
	c1.2,1.3,2.2,2.4,3.3,3.7C31.3,86,27.4,89.4,23.3,93.1z"/>
<path class="st1" d="M44.4,116.5c-4.2-2.8-8.2-5.4-12.3-8.1c3.8-5.8,7.4-11.4,11.3-17.3c1.4,0.9,2.7,1.8,4.1,2.7
	c-2.9,4.5-5.7,8.9-8.7,13.4c2.7,1.8,5.3,3.5,8.1,5.4C46.1,113.9,45.3,115.1,44.4,116.5z"/>
<path class="st1" d="M152,90.9c-6-3.5-11.8-6.9-17.8-10.4c0.9-1.5,1.6-2.8,2.5-4.3c4.7,2.7,9.2,5.3,13.9,7.9
	c1.6-2.8,3.2-5.5,4.9-8.3c1.3,0.8,2.5,1.4,3.9,2.3C156.9,82.4,154.5,86.6,152,90.9z"/>
<path class="st1" d="M161.5,72.8c-6.5-2.3-12.9-4.6-19.5-6.9c0.6-1.6,1-3,1.7-4.8c6.5,2.3,12.8,4.5,19.5,6.9
	C162.6,69.6,162.1,71.1,161.5,72.8z"/>
</svg>
